HIERARCHY
ROOT pelvis
{
  OFFSET 0 100 0
  CHANNELS 6 Xposition Yposition Zposition Zrotation Xrotation Yrotation
  JOINT pelvis_right_femur
  {
    OFFSET -10.78128 -3.44521 -0.5502486
    CHANNELS 3 Zrotation Xrotation Yrotation
    JOINT right_femur_tibia
    {
      OFFSET -0.8047443 -44.0398 -0.1307829
      CHANNELS 3 Zrotation Xrotation Yrotation
      JOINT right_tibia_foot
      {
        OFFSET 3.006224 -47.83518 -5
        CHANNELS 3 Zrotation Xrotation Yrotation
        End Site
        {
          OFFSET 0 -5 15
        }
      }
    }
  }
  JOINT pelvis_left_femur
  {
    OFFSET 10.78128 -3.44521 -0.5502486
    CHANNELS 3 Zrotation Xrotation Yrotation
    JOINT left_femur_tibia
    {
      OFFSET 0.8047443 -44.0398 -0.1307829
      CHANNELS 3 Zrotation Xrotation Yrotation
      JOINT left_tibia_foot
      {
        OFFSET -4.370144 -48.10324 -4.275266
        CHANNELS 3 Zrotation Xrotation Yrotation
        End Site
        {
          OFFSET 0 -5 15
        }
      }
    }
  }
  JOINT pelvis_spine1
  {
    OFFSET 0 6.468898 -3.129235
    CHANNELS 3 Zrotation Xrotation Yrotation
    JOINT spine1
    {
      OFFSET 0 23.15396 4.99043
      CHANNELS 3 Zrotation Xrotation Yrotation
      JOINT spine2
      {
        OFFSET 0 20.79997 -5.064912
        CHANNELS 3 Zrotation Xrotation Yrotation
        JOINT neck
        {
          OFFSET 0 14.38658 9.616178
          CHANNELS 3 Zrotation Xrotation Yrotation
          End Site
          {
            OFFSET 0 20 0
          }
        }
      }
      JOINT right_manubrium
      {
        OFFSET -5.722621 16.35077 3.967754
        CHANNELS 3 Zrotation Xrotation Yrotation
        JOINT right_clavicle
        {
          OFFSET -13.16364 1.694482 -4.693211
          CHANNELS 3 Zrotation Xrotation Yrotation
          JOINT right_humerus
          {
            OFFSET -28.5034 -0.3100689 -2.792744
            CHANNELS 3 Zrotation Xrotation Yrotation
            JOINT right_radius
            {
              OFFSET -25.15693 0.02248979 -1.271978
              CHANNELS 3 Zrotation Xrotation Yrotation
              End Site
              {
                OFFSET -15 0 0
              }
            }
          }
        }
      }
      JOINT left_manubrium
      {
        OFFSET 5.722621 16.35077 3.967754
        CHANNELS 3 Zrotation Xrotation Yrotation
        JOINT left_clavicle
        {
          OFFSET 13.16364 1.694482 -4.693211
          CHANNELS 3 Zrotation Xrotation Yrotation
          JOINT left_humerus
          {
            OFFSET 29.39168 -1.063119 -2.237045
            CHANNELS 3 Zrotation Xrotation Yrotation
            JOINT left_radius
            {
              OFFSET 24.59957 -0.9528479 0.9047498
              CHANNELS 3 Zrotation Xrotation Yrotation
              End Site
              {
                OFFSET 15 -0 -0
              }
            }
          }
        }
      }
    }
  }
}
MOTION
Frames: 15
Frame Time: 0.0416666666667
0 103.5113 0 2.17462 -1.21669 0.2862665 1.248915 -10.06041 8.758811 -0 34.81245 -0 -5.286809 -17.99633 -2.430021 -8.023869 10.09883 -23.51185 -0 5.125642 -0 7.683417 -16.14053 26.57684 -4.327242 -5.058504 4.936421 2.005265 9.218962 -7.751912 0.8321628 22.82806 7.174778 3.250524 -23.09916 8.806865 6.379799 -19.77608 11.56839 86.30703 35.94348 -19.77793 -0 0 16.28077 -7.58179 8.243601 4.625298 5.468117 -19.46236 -1.711652 -94.79681 29.75861 22.95649 0 0 -15.92489 3.488039 17.90303 9.591949
0.3313331 103.5264 1.342579 2.001896 -1.10586 0.4644674 1.529371 -11.05171 8.666694 -0 34.72267 -0 -5.370416 -17.61929 -2.490932 -7.852152 10.23231 -23.39316 -0 5.162026 -0 7.550099 -16.40151 26.39618 -4.249037 -4.861242 4.856874 2.089114 9.189468 -7.791787 0.8490086 22.72887 7.194566 3.279697 -23.23613 8.828277 6.376027 -19.74784 11.55882 86.28043 35.9183 -19.80105 -0 0 16.21978 -7.629202 8.278536 4.661068 5.510796 -19.47166 -1.743738 -94.72831 29.73372 22.83832 0 0 -16.12466 3.525384 17.81211 9.612862
0.6951371 103.4943 2.786022 1.755389 -0.8673487 0.5120767 1.895503 -12.57197 8.416411 -0 33.3703 -0 -5.47592 -16.88647 -2.278726 -7.617696 10.38042 -23.16558 -0 5.263782 -0 7.338455 -16.82114 26.09389 -4.172525 -4.552765 4.793754 2.268489 9.124342 -7.834817 0.8874385 22.51938 7.218018 3.341299 -23.45311 8.846049 6.35565 -19.67513 11.55498 86.24071 35.88498 -19.85644 -0 0 16.08276 -7.697001 8.334783 4.706486 5.655246 -19.49892 -1.784227 -94.62323 29.68459 22.57586 0 0 -16.56397 3.595997 17.67845 9.595243
1.108785 103.3479 4.390998 1.494338 -0.4688005 0.4180675 2.243348 -14.49672 7.969655 -0 30.17723 -0 -5.571827 -15.66924 -1.691869 -7.409035 10.52334 -22.78784 -0 5.490515 -0 7.054209 -17.41046 25.64328 -4.130469 -4.161073 4.799153 2.523802 9.016743 -7.833242 0.9825444 22.19227 7.224823 3.448775 -23.7454 8.867859 6.287707 -19.50851 11.55507 86.22374 35.84229 -19.97988 -0 0 15.83733 -7.783696 8.414619 4.756018 5.915087 -19.58739 -1.816592 -94.45315 29.62053 22.11625 0 0 -17.28841 3.692407 17.50633 9.502343
1.575008 103.0212 6.211806 1.288755 0.08357936 0.2340067 2.462811 -16.59711 7.344685 -0 25.0998 -0 -5.64101 -13.97127 -0.751715 -7.290995 10.6637 -22.24184 -0 5.900379 -0 6.694647 -18.12873 25.01211 -4.137845 -3.748542 4.891584 2.795546 8.87193 -7.754889 1.136607 21.79911 7.204982 3.594914 -24.07879 8.89271 6.15243 -19.24564 11.54418 86.25897 35.78927 -20.16777 -0 0 15.48435 -7.891007 8.51866 4.811069 6.273558 -19.76534 -1.81387 -94.19215 29.54588 21.46661 0 0 -18.23845 3.801964 17.29791 9.337395
2.086061 102.4871 8.296942 1.193857 0.7557168 0.04523116 2.487396 -18.58131 6.587925 -0 18.55355 -0 -5.683636 -11.95263 0.4281449 -7.286165 10.82449 -21.52741 -0 6.561458 -0 6.235115 -18.88492 24.15849 -4.184432 -3.394827 5.042973 3.009206 8.705063 -7.607468 1.312864 21.42614 7.166374 3.754055 -24.39728 8.908069 5.949724 -18.92437 11.49845 86.36958 35.72725 -20.38784 -0 0 15.04553 -8.02063 8.648369 4.87848 6.686061 -20.02837 -1.754477 -93.83068 29.45329 20.6936 0 0 -19.26412 3.911083 17.05133 9.144188
2.635305 101.7757 10.73075 1.194538 1.504655 -0.07757111 2.406567 -20.17771 5.729395 -0 11.40017 -0 -5.72697 -9.967582 1.658417 -7.368992 11.04236 -20.65127 -0 7.583506 -0 5.61183 -19.552 23.04215 -4.216567 -3.147203 5.159504 3.13124 8.538278 -7.480382 1.453295 21.11773 7.142136 3.89961 -24.65582 8.903869 5.71111 -18.56242 11.40233 86.59401 35.66185 -20.64477 -0 0 14.52136 -8.162962 8.811674 4.962309 7.055459 -20.31247 -1.674232 -93.40775 29.32294 19.91703 0 0 -20.16678 4.00489 16.76067 8.990378
3.206628 100.9669 13.61658 1.217793 2.267255 -0.05285612 2.356345 -21.13055 4.879925 -0 4.70955 -0 -5.826424 -8.336111 2.780366 -7.446978 11.30759 -19.64915 -0 9.155845 -0 4.745722 -19.94203 21.62681 -4.153412 -3.023638 5.171284 3.173358 8.378365 -7.447725 1.526664 20.88013 7.14671 4.015697 -24.84561 8.869955 5.482455 -18.15826 11.26296 86.94627 35.59809 -20.96234 -0 0 13.89977 -8.313417 9.016384 5.062852 7.274021 -20.54599 -1.617083 -92.98285 29.13972 19.26141 0 0 -20.77678 4.063942 16.42104 8.924349
3.76867 100.1841 17.04487 1.161286 2.973935 0.220638 2.454793 -21.17126 4.213144 0 -0.386386 0 -6.061528 -7.267164 3.670779 -7.376754 11.54453 -18.58164 -0 11.55228 -0 3.554748 -19.77273 19.88248 -3.901217 -3.030378 5.049286 3.173778 8.217041 -7.544771 1.526013 20.6978 7.171258 4.092049 -24.9822 8.791625 5.309833 -17.70302 11.10668 87.40916 35.53995 -21.36319 -0 0 13.16721 -8.47787 9.268479 5.179255 7.246252 -20.66239 -1.616597 -92.62564 28.89575 18.84249 0 0 -20.97066 4.066957 16.03093 8.97065
4.305023 99.58616 21.05619 0.9793058 3.605749 0.7473435 2.676965 -20.08156 3.798342 0 -3.273687 0 -6.486692 -6.716912 4.23177 -7.061755 11.58261 -17.50056 -0 15.03772 -0 1.999522 -18.66315 17.82424 -3.405854 -3.17983 4.810758 3.153484 8.048421 -7.754699 1.441901 20.55713 7.198304 4.109391 -25.06193 8.64498 5.202021 -17.20749 10.96667 87.93302 35.49179 -21.82041 -0 0 12.34129 -8.674958 9.568224 5.316117 6.959434 -20.61472 -1.679701 -92.40152 28.5892 18.72329 0 0 -20.73961 4.009856 15.60091 9.127182
4.820535 99.31425 25.62566 0.6828292 4.063333 1.403987 2.982817 -17.85907 3.63683 0 -4.171895 0 -7.074178 -6.638353 4.477081 -6.564565 11.19291 -16.44139 -0 19.89451 -0 0.1752317 -16.33021 15.59912 -2.678289 -3.433885 4.559607 3.11186 7.909749 -7.981033 1.279612 20.47397 7.207822 4.057752 -25.03786 8.414068 5.137418 -16.69362 10.89501 88.45264 35.45903 -22.25161 -0 0 11.48749 -8.92669 9.911653 5.488463 6.468049 -20.40529 -1.792243 -92.33346 28.22174 18.8868 0 0 -20.17584 3.898325 15.14372 9.366108
5.329959 99.44483 30.65115 0.3538463 4.156092 1.949917 3.327274 -14.646 3.677088 0 -3.965452 0 -7.717336 -7.069007 4.52559 -6.083656 10.06518 -15.42573 -0 26.41154 -0 -1.687807 -12.70219 13.47865 -1.811394 -3.68839 4.483853 3.033036 7.881048 -8.058029 1.063134 20.4945 7.176764 3.942861 -24.83363 8.091852 5.091305 -16.19488 10.96319 88.88876 35.45092 -22.52496 -0 0 10.70778 -9.259116 10.29283 5.721401 5.868162 -20.08899 -1.924577 -92.39341 27.7968 19.24751 0 0 -19.44356 3.745222 14.67255 9.639353
5.839256 99.9681 35.96021 0.1816838 3.739878 2.137859 3.555663 -10.46143 3.768988 0 -3.603805 0 -8.275982 -8.099127 4.525498 -5.784103 7.821805 -14.46535 -0 34.5528 -0 -3.238695 -8.253392 11.78129 -1.044602 -3.797447 4.780347 2.899061 8.03183 -7.839032 0.8332301 20.66717 7.080381 3.793309 -24.42217 7.677247 5.106844 -15.7724 11.22185 89.15017 35.482 -22.49512 -0 0 10.08471 -9.70476 10.70517 6.039177 5.25169 -19.77159 -2.03634 -92.48485 27.3238 19.68359 0 0 -18.71694 3.579406 14.20571 9.892737
6.342611 100.8114 41.34592 0.3276003 2.806864 1.902487 3.494469 -5.348807 3.790054 0 -3.706624 0 -8.638609 -9.658437 4.589664 -5.679989 4.1867 -13.56412 -0 43.61741 -0 -4.263469 -3.836439 10.72214 -0.6191001 -3.671154 5.501856 2.698174 8.352459 -7.317466 0.6401792 21.01987 6.896941 3.647253 -23.79912 7.18077 5.202059 -15.53929 11.63919 89.09694 35.56623 -22.01289 -0 0 9.711836 -10.31459 11.13195 6.466355 4.696789 -19.54166 -2.097482 -92.50821 26.81133 20.09272 0 0 -18.13093 3.438679 13.75705 10.07635
6.842501 101.8589 46.61802 0.8794976 1.473015 1.459656 2.995342 0.5466026 3.694422 0 -4.554117 0 -8.723582 -11.49511 4.793629 -5.660834 -0.9523357 -12.71774 -0 52.23423 -0 -4.696213 -0.474112 10.40826 -0.7158009 -3.307151 6.553639 2.422273 8.761807 -6.613018 0.5335538 21.5532 6.613724 3.540672 -22.97192 6.627359 5.339284 -15.63826 12.1051 88.5568 35.70479 -20.9355 -0 0 9.706285 -11.15869 11.54472 7.029853 4.279537 -19.44796 -2.082446 -92.38792 26.26486 20.40901 0 0 -17.77647 3.361725 13.33287 10.1514
